PathFileType	4	(X/Y/Z)	/Users/itak/Documents/Research/Walk-IL/dataset/trc/00574_00009.trc
DataRate	CameraRate	NumFrames	NumMarkers	Units	OrigDataRate	OrigDataStartFrame	OrigNumFrames
100.000000	100.000000	4	53	mm	100.000000	361	579
Frame#	Time	RPSI			LPSI			L3			STRN			T10			C7			CLAV			RBAK			LBAK			LSHO			LUPA			LAEL			LAOL			LWTS			LWPS			LFRA			LIFD			LHPS			LHTS			RSHO			RUPA			RAEL			RAOL			RWTS			RWPS			RFRA			RIFD			RHTS			RHPS			RBHD			LFHD			RFHD			LBHD			LHIP			RHIP			RASI			LASI			LKNE			LTHI			LANK			LTIP			LTOE			LMT1			LMT5			LHEE			RKNE			RTHI			RANK			RTIP			RTOE			RMT1			RMT5			RHEE			
		X1	Y1	Z1	X2	Y2	Z2	X3	Y3	Z3	X4	Y4	Z4	X5	Y5	Z5	X6	Y6	Z6	X7	Y7	Z7	X8	Y8	Z8	X9	Y9	Z9	X10	Y10	Z10	X11	Y11	Z11	X12	Y12	Z12	X13	Y13	Z13	X14	Y14	Z14	X15	Y15	Z15	X16	Y16	Z16	X17	Y17	Z17	X18	Y18	Z18	X19	Y19	Z19	X20	Y20	Z20	X21	Y21	Z21	X22	Y22	Z22	X23	Y23	Z23	X24	Y24	Z24	X25	Y25	Z25	X26	Y26	Z26	X27	Y27	Z27	X28	Y28	Z28	X29	Y29	Z29	X30	Y30	Z30	X31	Y31	Z31	X32	Y32	Z32	X33	Y33	Z33	X34	Y34	Z34	X35	Y35	Z35	X36	Y36	Z36	X37	Y37	Z37	X38	Y38	Z38	X39	Y39	Z39	X40	Y40	Z40	X41	Y41	Z41	X42	Y42	Z42	X43	Y43	Z43	X44	Y44	Z44	X45	Y45	Z45	X46	Y46	Z46	X47	Y47	Z47	X48	Y48	Z48	X49	Y49	Z49	X50	Y50	Z50	X51	Y51	Z51	X52	Y52	Z52	X53	Y53	Z53	

362	3.61	100.3574142456055	991.107666015625	604.1725463867188	67.86450958251953	989.0620727539062	475.2081604003906	91.31653594970703	1087.935302734375	537.7744140625	316.884765625	1268.143920898438	456.6427917480469	86.36425018310547	1213.1259765625	540.401123046875	145.3496551513672	1486.04296875	533.8251342773438	300.25341796875	1379.847412109375	460.0403747558594	109.2060394287109	1363.736083984375	641.1926879882812	77.72769165039062	1433.667602539062	463.466552734375	135.0216217041016	1452.876831054688	348.1059265136719	88.53535461425781	1323.786010742188	287.3240661621094	82.22383880615234	1103.807495117188	265.5797119140625	35.45230102539062	1100.291748046875	355.0562438964844	165.4808349609375	852.8926391601562	265.1210021972656	89.43502807617188	837.7066650390625	225.4893035888672	91.98586273193359	1016.493408203125	249.7328796386719	137.0761413574219	685.111328125	275.1553649902344	92.87760925292969	776.8084716796875	230.9207000732422	160.0570983886719	773.7715454101562	243.2266387939453	257.6305541992188	1446.420532226562	656.373046875	265.5091857910156	1381.469970703125	725.9474487304688	271.1991882324219	1094.5634765625	776.3679809570312	209.0367279052734	1077.726440429688	768.6218872070312	386.6044921875	873.7431640625	700.3172607421875	363.7798461914062	853.6377563476562	776.9068603515625	283.6213684082031	1039.269409179688	781.8072509765625	400.0171508789062	700.7178955078125	701.21728515625	420.2427673339844	783.9930419921875	707.55322265625	380.7032165527344	780.0435791015625	769.9349975585938	255.2943420410156	1666.857055664062	563.2122802734375	317.1425170898438	1680.73388671875	366.081298828125	377.5631713867188	1683.301025390625	496.4097900390625	192.2777404785156	1661.9365234375	410.2014770507812	171.7678070068359	913.956787109375	321.4153747558594	239.0886688232422	917.7193603515625	699.8723754882812	319.0085144042969	945.0211181640625	624.6921997070312	255.819091796875	942.6715698242188	356.5753784179688	350.012451171875	500.7599487304688	370.8297119140625	283.6842346191406	653.7994384765625	335.1159973144531	327.7992553710938	32.58397674560547	453.3078918457031	325.8876037597656	245.2754669189453	412.3697509765625	541.2681884765625	43.15605926513672	396.3357543945312	495.2928466796875	47.44547653198242	462.9629516601562	426.7657470703125	37.79459381103516	380.7317504882812	299.131103515625	35.80071640014648	535.162841796875	176.1883850097656	484.4942016601562	686.08740234375	255.7067108154297	763.6072387695312	691.1322631835938	-170.3768920898438	133.8789978027344	714.9779663085938	94.4647216796875	361.4052124023438	693.0883178710938	5.793481826782227	37.17763900756836	672.1029663085938	-42.45594024658203	62.58699798583984	631.1264038085938	-72.89802551269531	52.15456771850586	730.8423461914062	-216.5168151855469	165.6696929931641	660.280029296875	
363	3.62	109.0049819946289	991.456787109375	601.8522338867188	75.94564056396484	989.9287719726562	472.9569396972656	99.93144226074219	1088.724853515625	535.2064819335938	324.4991149902344	1269.31396484375	452.9412231445312	94.73023986816406	1213.765258789062	538.002197265625	153.0642395019531	1486.926635742188	531.2764282226562	307.6725463867188	1381.052124023438	456.5711059570312	117.806640625	1364.477172851562	638.8709106445312	85.0849609375	1434.406005859375	461.3473510742188	141.6418914794922	1453.909301757812	345.6871337890625	95.13585662841797	1324.874877929688	284.8667602539062	89.61923980712891	1104.892456054688	262.5917663574219	43.29374694824219	1100.9443359375	352.253662109375	174.4988098144531	854.5071411132812	261.1039428710938	98.33554840087891	838.91357421875	221.83203125	99.83122253417969	1017.681762695312	246.4949188232422	147.1393585205078	686.5457763671875	271.023193359375	102.1407089233398	778.03662109375	227.1789398193359	169.4010162353516	775.393798828125	239.1483306884766	266.218994140625	1447.359619140625	653.1092529296875	274.6900329589844	1382.463989257812	722.669921875	280.5248718261719	1095.46337890625	773.047119140625	218.0773010253906	1078.888916015625	765.9749755859375	394.1197814941406	874.2744750976562	695.5107421875	372.2646789550781	854.1901245117188	772.2943115234375	292.7146606445312	1040.164306640625	778.2571411132812	406.7049560546875	701.1416625976562	696.0103149414062	427.3113403320312	784.2946166992188	702.0482177734375	388.6539001464844	780.3510131835938	765.099853515625	263.0785522460938	1667.929443359375	560.043701171875	323.8007507324219	1681.802490234375	362.5662231445312	384.9472351074219	1684.3740234375	492.5563049316406	199.1969451904297	1663.0390625	407.3797302246094	178.6927185058594	914.7346801757812	318.4373168945312	249.2809600830078	918.1229858398438	695.81591796875	328.1451721191406	946.0574340820312	620.532958984375	263.0694580078125	943.5636596679688	352.921142578125	354.0228271484375	500.2111511230469	369.5094299316406	288.6389770507812	653.486572265625	333.1439819335938	328.0716552734375	32.86285400390625	453.3665161132812	327.834716796875	245.2459259033203	412.0960998535156	541.83740234375	42.30588912963867	396.6961059570312	495.7308349609375	47.01085662841797	463.2298889160156	427.023681640625	37.85594940185547	380.8538513183594	299.2888793945312	35.92795944213867	535.27685546875	194.9288330078125	483.3740234375	683.8975830078125	267.9433288574219	764.222412109375	687.6051635742188	-160.8015594482422	144.2454223632812	718.318359375	111.2027740478516	361.5934448242188	691.7584838867188	8.136476516723633	36.70217514038086	672.4548950195312	-39.25804138183594	65.54473876953125	632.1009521484375	-67.56962585449219	57.14398956298828	732.3076171875	-206.4782867431641	178.0426025390625	664.5633544921875	
364	3.63	117.5640563964844	991.7134399414062	599.6346435546875	83.79237365722656	990.843994140625	470.8624267578125	108.3330307006836	1089.44091796875	532.7301025390625	331.9718017578125	1270.412231445312	449.2877807617188	102.9680480957031	1214.393920898438	535.593505859375	160.6540985107422	1487.776245117188	528.7107543945312	314.9852294921875	1382.192504882812	453.1372985839844	126.1971664428711	1365.158203125	636.4496459960938	92.35176086425781	1435.138305664062	459.1780395507812	148.2151641845703	1454.903564453125	343.2488403320312	101.6568450927734	1325.935424804688	282.3818664550781	96.91230773925781	1105.95068359375	259.5308532714844	51.0182991027832	1101.5341796875	349.3690185546875	183.6958770751953	856.242431640625	256.9585571289062	107.4140396118164	840.1014404296875	218.0958862304688	107.63916015625	1018.861572265625	243.1811981201172	157.74755859375	688.0787353515625	266.6976013183594	111.7263793945312	779.2627563476562	223.3198089599609	179.0754241943359	777.154296875	234.8881378173828	274.5938415527344	1448.244995117188	649.8822021484375	283.5833435058594	1383.395263671875	719.40283203125	289.8537902832031	1096.302368164062	769.7229614257812	227.1694030761719	1079.966796875	763.3580322265625	401.691162109375	874.7939453125	690.719970703125	380.9142456054688	854.7772216796875	767.7263793945312	301.8470153808594	1041.013793945312	774.705322265625	413.5342712402344	701.5684204101562	690.9348754882812	434.4386901855469	784.5802612304688	696.545654296875	396.8293762207031	780.7001953125	760.3480834960938	270.7802124023438	1668.927612304688	556.9426879882812	330.4385986328125	1682.886474609375	359.1326599121094	392.2788391113281	1685.384887695312	488.8240661621094	206.0844573974609	1664.140258789062	404.6051940917969	185.305419921875	915.5610961914062	315.5665893554688	259.5455627441406	918.4561157226562	691.6351318359375	337.1083374023438	947.0465087890625	616.438232421875	270.0580749511719	944.432861328125	349.3289794921875	357.6508178710938	499.7006530761719	368.1204833984375	293.3298034667969	653.298828125	331.2393798828125	328.2526550292969	33.051025390625	453.4133911132812	329.5238342285156	245.2112731933594	411.751953125	542.191162109375	41.78090286254883	396.9955444335938	496.0148010253906	46.72806549072266	463.4053039550781	427.1375122070312	37.87578201293945	380.94970703125	299.4183349609375	36.03387451171875	535.3862915039062	214.0900268554688	482.2498474121094	681.3380737304688	280.1502685546875	764.763671875	684.0780639648438	-150.0832061767578	154.9343719482422	721.5454711914062	128.4796752929688	361.7413330078125	689.96826171875	11.31116676330566	36.28633117675781	672.6959838867188	-35.34023666381836	68.92967987060547	633.0635375976562	-61.20552062988281	62.92383575439453	733.7962646484375	-195.4622192382812	190.5141448974609	668.861328125	
365	3.64	126.0512084960938	991.8850708007812	597.5392456054688	91.41001129150391	991.7855834960938	468.9534606933594	116.5507659912109	1090.098266601562	530.3839111328125	339.3015747070312	1271.436157226562	445.7008666992188	111.0653305053711	1215.03125	533.2116088867188	168.1261596679688	1488.594970703125	526.132568359375	322.1961975097656	1383.2587890625	449.7538757324219	134.3855590820312	1365.799560546875	633.9505615234375	99.53401947021484	1435.87451171875	456.9585266113281	154.763916015625	1455.857299804688	340.7926940917969	108.1376800537109	1326.962158203125	279.8643188476562	104.1258163452148	1106.979736328125	256.4091186523438	58.631591796875	1102.061401367188	346.4001770019531	193.0453491210938	858.0881958007812	252.7025909423828	116.6541748046875	841.2758178710938	214.2850189208984	115.4250106811523	1020.028259277344	239.7982788085938	168.8544158935547	689.7119140625	262.1467895507812	121.6081771850586	780.4955444335938	219.3364868164062	189.0471801757812	779.0435791015625	230.4542541503906	282.7701110839844	1449.09130859375	646.6983642578125	292.2081298828125	1384.276489257812	716.1621704101562	299.1346740722656	1097.088134765625	766.382568359375	236.2577972412109	1080.965576171875	760.734619140625	409.3369750976562	875.3197631835938	685.9595947265625	389.6974487304688	855.4118041992188	763.2150268554688	310.9735412597656	1041.825317382812	771.150146484375	420.5325622558594	702.0134887695312	686.0143432617188	441.6606140136719	784.87646484375	691.1035766601562	405.213623046875	781.119384765625	755.6932983398438	278.3986206054688	1669.846801757812	553.9058227539062	337.0428161621094	1683.972412109375	355.7817687988281	399.5538635253906	1686.338134765625	485.2008056640625	212.9400482177734	1665.221801757812	401.869873046875	191.6021575927734	916.419677734375	312.8195190429688	269.86279296875	918.7381591796875	687.3788452148438	345.9034118652344	947.9969482421875	612.4099731445312	276.7656860351562	945.2838745117188	345.8141784667969	360.9633483886719	499.230224609375	366.6622619628906	297.7885131835938	653.2303466796875	329.38037109375	328.3612365722656	33.16224670410156	453.442138671875	331.0216369628906	245.1725616455078	411.3198547363281	542.390625	41.4825553894043	397.2317810058594	496.1755981445312	46.55442810058594	463.5049438476562	427.1443176269531	37.85992431640625	381.0125427246094	299.5277099609375	36.13464736938477	535.483642578125	233.5635528564453	481.1869506835938	678.3862915039062	292.3595886230469	765.2552490234375	680.484619140625	-138.2015228271484	165.6752471923828	724.56982421875	146.1863098144531	361.8967895507812	687.7171020507812	15.48615837097168	36.08797454833984	672.7572021484375	-30.53383445739746	72.68695831298828	633.945556640625	-53.62366485595703	69.30682373046875	735.2339477539062	-183.4579315185547	202.8010101318359	673.0556640625	
